# xmcd CD database file
#
# Track frame offsets:
#	150
#	13018
#	30507
#	44849
#	63733
#	84581
#	99740
#	113203
#	128472
#	140608
#	152417
#	166639
#	182905
#	198348
#	212650
#	227494
#	240875
#	254176
#	267438
#	281512
#	293726
#	309546
#	325616
#	343281
#
# Disc length: 4731 seconds
#
# Revision: 0
# Processed by: cddbd v1.5.1PL2 Copyright (c) Steve Scherf et al.
# Submitted via: CDex 1.51
#
DISCID=5b127918
DTITLE=Varios - Cumbias del Recuerdo
DYEAR=1900
DGENRE=Salsa
TTITLE0=Intro Mix
TTITLE1=El Cucu
TTITLE2=Que Nadie Sepa Mi Sufrir
TTITLE3=Que Bello 
TTITLE4=Cumbia Buena
TTITLE5=Abre Tus Ojos
TTITLE6=Pedacito De Mi Vida
TTITLE7=Cumbia Del Fandango
TTITLE8=Amor De Unas Horas
TTITLE9=Se Me Perdió La Cadenita
TTITLE10=Veneno
TTITLE11=Te Aprovechas De Mí
TTITLE12=Pensando
TTITLE13=Llorando Se Fue 
TTITLE14=La Cumbia De Los Luchadores
TTITLE15=Bella, Belludita
TTITLE16=Enfermera
TTITLE17=Hoy Voy A Tomar
TTITLE18=Amor Añejo
TTITLE19=Cumbia Badulera
TTITLE20=Muñeca Esquiva
TTITLE21=Pagarás
TTITLE22=La Suavecita
TTITLE23=El Cafetero
EXTD=
EXTT0=
EXTT1=
EXTT2=
EXTT3=
EXTT4=
EXTT5=
EXTT6=
EXTT7=
EXTT8=
EXTT9=
EXTT10=
EXTT11=
EXTT12=
EXTT13=
EXTT14=
EXTT15=
EXTT16=
EXTT17=
EXTT18=
EXTT19=
EXTT20=
EXTT21=
EXTT22=
EXTT23=
PLAYORDER=
